<?xml version="1.0" ?><svg viewBox="0 0 64 64" xmlns="http://www.w3.org/2000/svg"><g data-name="Fill Outline" id="Fill_Outline"><g data-name="Stroke copy" id="Stroke_copy"><g><path d="M32.37,3.37,32,3l-.37.371A33.129,33.129,0,0,1,6,13H6v8.845A38,38,0,0,0,20.123,51.407L32,61l11.877-9.593A38,38,0,0,0,58,21.845V13h0A33.132,33.132,0,0,1,32.37,3.37Z" style="fill: #84d2f4"/><path d="M22.637,48.3A33.847,33.847,0,0,1,10,21.845V17.031A36.8,36.8,0,0,0,32,8.45a36.806,36.806,0,0,0,22,8.581v4.814A33.847,33.847,0,0,1,41.363,48.3L32,55.858Z" style="fill: #57b7eb"/><path d="M32.122,44.407A38,38,0,0,1,18,14.845V11.587A33.117,33.117,0,0,1,6,13H6v8.845A38,38,0,0,0,20.123,51.407L32,61l10.333-8.346Z" style="fill: #57b7eb"/><path d="M22.637,48.3,32,55.858l7.15-5.775-7.028-5.676a37.989,37.989,0,0,1-14.1-28.646A37.182,37.182,0,0,1,10,17.031v4.814A33.847,33.847,0,0,0,22.637,48.3Z" style="fill: #4891d3"/><g><circle cx="32" cy="30" r="13" style="fill: #f9e109"/><path d="M39,38A12.988,12.988,0,0,1,28.377,17.522,13,13,0,1,0,42.623,37.478,12.972,12.972,0,0,1,39,38Z" style="fill: #fcbc04"/><circle cx="32" cy="30" r="6" style="fill: #c4f236"/><path d="M35,33a5.993,5.993,0,0,1-5.466-8.466,6,6,0,1,0,7.932,7.932A5.974,5.974,0,0,1,35,33Z" style="fill: #a1d51c"/><path d="M30.361,42.886a37.965,37.965,0,0,1-10.7-16.962,12.974,12.974,0,0,0,10.7,16.962Z" style="fill: #e59730"/><path d="M32.084,35.994a13,13,0,0,1-5.724-8A5.967,5.967,0,0,0,32,36C32.029,36,32.055,35.994,32.084,35.994Z" style="fill: #7ab92d"/></g></g></g><g data-name="Outline copy" id="Outline_copy"><g><path d="M58.684,12.27a1.025,1.025,0,0,0-.75-.268,32.161,32.161,0,0,1-9.331-.756,1,1,0,1,0-.448,1.949A34.193,34.193,0,0,0,57,14.052v7.793A36.839,36.839,0,0,1,43.249,50.629L32,59.714,20.751,50.629c-.737-.595-1.508-1.28-2.355-2.094a1,1,0,1,0-1.385,1.442c.888.854,1.7,1.577,2.484,2.208l11.877,9.593a1,1,0,0,0,1.256,0l11.877-9.593A38.829,38.829,0,0,0,59,21.845V13A1,1,0,0,0,58.684,12.27Z" style="fill: #323232"/><path d="M7,21.845V14.052A34.118,34.118,0,0,0,32,4.41a33.889,33.889,0,0,0,12.2,7.624,1,1,0,0,0,.68-1.881,31.889,31.889,0,0,1-11.8-7.491l-.37-.37a1,1,0,0,0-1.415,0l-.369.371A32.155,32.155,0,0,1,6.066,12,1,1,0,0,0,5,13v8.845a39.047,39.047,0,0,0,9.172,25.1A1,1,0,1,0,15.7,45.66,37.047,37.047,0,0,1,7,21.845Z" style="fill: #323232"/><path d="M55,17.079a1,1,0,0,0-.952-1.047,35.685,35.685,0,0,1-21.4-8.348,1,1,0,0,0-1.286,0,35.677,35.677,0,0,1-21.4,8.348,1,1,0,0,0-.953,1v4.814A34.844,34.844,0,0,0,22.009,49.073l9.363,7.563a1,1,0,0,0,1.256,0l9.363-7.563A34.844,34.844,0,0,0,55,21.845V21a1,1,0,0,0-2,0v.845A32.859,32.859,0,0,1,40.735,47.518L32,54.573l-8.735-7.055A32.859,32.859,0,0,1,11,21.845V17.974A37.632,37.632,0,0,0,32,9.743,37.655,37.655,0,0,0,53.953,18.03,1.018,1.018,0,0,0,55,17.079Z" style="fill: #323232"/><path d="M22.293,29.292a1,1,0,0,0,1.414,1.416.958.958,0,0,1,1.11-.181l.215.107a6.982,6.982,0,0,0,.31,1.517,2.953,2.953,0,0,0-2.1,2.09,1,1,0,0,0,.707,1.225,1.015,1.015,0,0,0,.26.034,1,1,0,0,0,.965-.741.961.961,0,0,1,.871-.712l.245-.014a7.066,7.066,0,0,0,.986,1.115,2.95,2.95,0,0,0-.8,2.218l.032.493a1,1,0,0,0,1,.935c.022,0,.044,0,.066,0a1,1,0,0,0,.933-1.063l-.032-.492A.958.958,0,0,1,29,36.314a6.94,6.94,0,0,0,2.447.658.961.961,0,0,1,0,1.062l-.274.411a1,1,0,0,0,1.664,1.11l.274-.412a2.951,2.951,0,0,0,.414-2.316A6.905,6.905,0,0,0,35,36.315a.958.958,0,0,1,.53.921l-.032.493a1,1,0,0,0,.933,1.063c.022,0,.044,0,.066,0a1,1,0,0,0,1-.935l.032-.494a2.948,2.948,0,0,0-.8-2.212q.221-.2.421-.423a2.947,2.947,0,0,0,2.02.806c.064,0,.129,0,.194-.006l.493-.032a1,1,0,0,0,.934-1.062.987.987,0,0,0-1.063-.934l-.493.032a.958.958,0,0,1-.919-.526,6.961,6.961,0,0,0,.662-2.459.964.964,0,0,1,1.055.008l.411.275a1,1,0,1,0,1.11-1.664l-.411-.274a2.955,2.955,0,0,0-3.288,0l-.411.274A1,1,0,0,0,37,30a5,5,0,1,1-.669-2.5.951.951,0,0,0,.9.5,1,1,0,0,0,.864-.558L38.312,27a.961.961,0,0,1,.924-.534l.493.032a.987.987,0,0,0,1.063-.934,1,1,0,0,0-.934-1.062l-.493-.032a2.966,2.966,0,0,0-2.214.792,6.957,6.957,0,0,0-1.118-.977l.014-.242a.962.962,0,0,1,.712-.872,1,1,0,1,0-.518-1.931,2.957,2.957,0,0,0-2.09,2.1,6.954,6.954,0,0,0-1.6-.312.958.958,0,0,1,0-1.063l.274-.411a1,1,0,1,0-1.664-1.11l-.274.412a2.947,2.947,0,0,0-.414,2.314A6.931,6.931,0,0,0,29,23.686a.957.957,0,0,1-.532-.922l.032-.493a1,1,0,0,0-.933-1.063.99.99,0,0,0-1.063.933l-.032.494a2.949,2.949,0,0,0,.8,2.217c-.147.134-.287.275-.422.422a2.958,2.958,0,0,0-2.217-.8l-.493.032a1,1,0,0,0-.934,1.062.986.986,0,0,0,1.063.934l.493-.032a.967.967,0,0,1,.923.531,6.947,6.947,0,0,0-.53,1.537A2.956,2.956,0,0,0,22.293,29.292Z" style="fill: #323232"/><path d="M31,29a1,1,0,0,0-2,0,4,4,0,0,0,4,4,1,1,0,0,0,0-2A2,2,0,0,1,31,29Z" style="fill: #323232"/><circle cx="34" cy="29" r="1" style="fill: #323232"/><path d="M46,30A13.984,13.984,0,0,0,23.75,18.7a1,1,0,0,0,1.182,1.614,12.034,12.034,0,1,1-2.613,2.613,1,1,0,1,0-1.613-1.182A13.994,13.994,0,1,0,46,30Z" style="fill: #323232"/><circle cx="50" cy="20" r="1" style="fill: #323232"/><circle cx="49" cy="30" r="1" style="fill: #323232"/><circle cx="40" cy="44" r="1" style="fill: #323232"/><circle cx="24" cy="44" r="1" style="fill: #323232"/><circle cx="32" cy="13" r="1" style="fill: #323232"/><circle cx="32" cy="51" r="1" style="fill: #323232"/><circle cx="14" cy="20" r="1" style="fill: #323232"/><circle cx="15" cy="30" r="1" style="fill: #323232"/></g></g></g></svg>